<?xml version="1.0" encoding="UTF-8" standalone="no"?>
<svg
   viewBox="0 0 512 512.00001"
   style="display:block"
   version="1.1"
   id="svg7"
   sodipodi:docname="vivant.svg"
   inkscape:export-filename="test.png"
   inkscape:export-xdpi="96"
   inkscape:export-ydpi="96"
   inkscape:version="1.4.3 (0d15f75042, 2025-12-25)"
   width="512"
   height="512"
   xmlns:inkscape="http://www.inkscape.org/namespaces/inkscape"
   xmlns:sodipodi="http://sodipodi.sourceforge.net/DTD/sodipodi-0.dtd"
   xmlns="http://www.w3.org/2000/svg"
   xmlns:svg="http://www.w3.org/2000/svg">
  <sodipodi:namedview
     id="namedview7"
     pagecolor="#ffffff"
     bordercolor="#000000"
     borderopacity="0.25"
     inkscape:showpageshadow="2"
     inkscape:pageopacity="0.0"
     inkscape:pagecheckerboard="0"
     inkscape:deskcolor="#d1d1d1"
     inkscape:export-bgcolor="#ffffff00"
     inkscape:zoom="0.35355339"
     inkscape:cx="-175.36248"
     inkscape:cy="309.71277"
     inkscape:window-width="1900"
     inkscape:window-height="1020"
     inkscape:window-x="0"
     inkscape:window-y="0"
     inkscape:window-maximized="1"
     inkscape:current-layer="g7" />
  <defs
     id="defs2">
    <linearGradient
       id="pvse1-Gradient1"
       gradientUnits="userSpaceOnUse"
       x1="347.99899"
       y1="207.332"
       x2="1694.2"
       y2="1661.04"
       gradientTransform="matrix(0.85417563,0,0,1.1448667,31.45143,-18.784607)">
      <stop
         class="stop0"
         offset="0"
         stop-opacity="1"
         stop-color="rgb(255,90,28)"
         id="stop1" />
      <stop
         class="stop1"
         offset="1"
         stop-opacity="1"
         stop-color="rgb(251,181,5)"
         id="stop2" />
    </linearGradient>
  </defs>
  <g
     id="g7"
     transform="matrix(0.37203573,0,0,0.27787491,-80.241318,-36.03163)">
    <path
       d="m 505.93916,130.55067 c 1.17108,-0.0916 2.34301,-0.16715 3.51494,-0.22669 18.61761,-0.96512 40.94832,-0.1992 59.80425,-0.19806 l 111.68261,0.0183 338.28774,0.016 191.7283,-0.0229 c 42.2389,-0.0389 99.4602,-3.17357 139.3245,7.3031 54.804,14.55355 105.4737,49.36208 146.2947,100.49183 57.7423,72.98067 91.7128,173.51943 94.5402,279.8329 1.6656,67.56088 0.1195,144.34251 0.222,212.89026 l -0.017,477.78839 -0.017,246.5241 c 0.034,61.1359 2.6992,137.3039 -5.9365,195.612 -10.5576,73.4546 -36.4819,141.3796 -74.7319,195.8409 -54.8637,76.8434 -130.0995,121.6306 -209.4182,124.6874 -22.6357,1.1907 -47.3128,0.7785 -70.1022,0.7785 l -110.2655,-0.092 -325.61949,-0.011 -193.02746,0.034 c -44.15148,0.012 -100.20847,3.0912 -142.8045,-7.8881 -54.47249,-13.8415 -105.06446,-47.4547 -146.25537,-97.1992 -58.35386,-72.1838 -93.01545,-172.394 -96.41165,-278.7293 -1.08395,-30.9343 -0.68676,-63.334 -0.68676,-94.4286 l 0.008,-142.055 -0.0162,-436.11868 -0.0256,-264.67373 c -0.0154,-59.2583 -2.37461,-137.27524 5.7674,-193.52827 10.40129,-73.53593 35.80106,-141.77114 73.38052,-197.13231 55.43172,-81.54084 129.10437,-124.55807 210.78064,-129.51419 z"
       fill="url(#pvse1-Gradient1)"
       id="path3"
       style="fill:url(#pvse1-Gradient1);stroke-width:0.988897" />
    <g
       id="g8"
       transform="matrix(0.84733328,0,0,1.1997409,16.169788,-88.640494)">
      <path
         d="m 680.53,636.423 c 5.055,-0.371 12.574,-0.437 17.733,-0.402 87.802,0.584 191.483,26.28 255.602,89.77 21.864,21.651 38.458,50.956 44.062,80.979 4.053,21.718 3.063,47.546 3.063,69.906 l -0.01,88.973 -0.11,339.281 c -26.669,-20.33 -38.966,-28.64 -68.436,-45.24 -86.082,-44.24 -183.38,-61.88 -279.515,-50.67 -24.518,2.81 -45.943,7.53 -69.955,12.78 -0.852,-40.9 -0.174,-83.64 -0.167,-124.73 l -0.009,-229.64 -0.019,-132.799 c 0,-22.292 -0.292,-44.879 0.346,-67.142 0.594,-20.711 23.784,-22.728 39.402,-25.375 19.286,-3.267 38.388,-4.586 58.013,-5.691 z"
         fill="#fefefe"
         fill-rule="nonzero"
         id="path4" />
      <path
         d="m 1597.88,364.939 c 2.93,4.048 4.47,28.985 4.67,35.528 4.15,142.297 -92.79,228.879 -206.54,295.112 -50.05,29.143 -102.44,54.373 -141.92,96.765 31.1,-16.814 68.41,-29.801 101.68,-42.231 87.18,-32.574 162.78,-65.014 228.35,-132.809 -6.76,124.012 -84.61,200.514 -192.35,250.029 -50.49,23.204 -101.2,41.613 -145.63,75.642 72.05,-23.076 147.03,-23.413 213.72,-61.869 3.12,-1.796 18.45,-10.932 20.42,-11.444 l 0.48,1.631 c -3.66,14.668 -6.89,25.9 -13.15,39.848 -25.02,55.801 -75.33,97.069 -131.68,118.819 -33.42,12.91 -69.41,22.38 -103.48,35.36 -68.33,26.03 -124.43,65.94 -162.71,129.16 -11.45,18.91 -18.4,34.98 -27.42,55.04 -1,-26.64 -0.42,-55.46 -0.43,-82.31 l -0.01,-145.42 -0.1,-101.917 c -0.01,-23.978 -0.62,-47.936 1.52,-71.73 17.1,-190.103 211.62,-235.934 352.21,-313.253 85.45,-46.995 145.06,-89.776 202.37,-169.951 z"
         fill="#fefefe"
         fill-rule="nonzero"
         id="path5" />
      <path
         d="m 514.407,729.104 c 9.631,-0.522 18.091,-0.442 27.703,-0.328 1.307,60.848 0.343,125 0.354,186.033 l -0.059,359.421 c 129.226,-38.04 258.808,-41.23 379.421,26.22 11.533,6.4 22.618,13.58 33.179,21.49 14.622,10.91 30.668,27.96 48.005,32.24 40.91,10.09 55.8,-9.48 83.23,-30.22 12.84,-9.79 26.43,-18.55 40.65,-26.21 89.25,-48.7 194.7,-60.37 293.93,-42.75 27.41,4.86 53.43,11.65 80.09,19.46 l -0.09,-220.85 -0.03,-71.456 c -0.01,-12.482 -0.29,-28.544 0.51,-40.692 0.69,-10.499 11.04,-28.065 14.77,-39.714 7.9,-24.637 10.4,-44.004 12.73,-69.5 5.44,-6.742 15.15,-16.734 21.3,-23.656 l 0.09,29.591 -0.08,340.647 0.12,102.74 c 0.02,17.33 0.43,35.07 -0.54,52.38 -0.26,5.1 -3.99,13 -7.92,16.37 -12.27,10.53 -47.22,7.17 -62.11,7.16 l -81.91,-0.04 -271.56,-0.12 c -9.82,13.23 -18.18,24.91 -31.51,35.16 -26.34,20.26 -60.66,25.02 -92.94,21.02 -23.772,-2.95 -48.725,-14.38 -65.453,-31.73 -5.11,-5.31 -14.267,-18.13 -19.229,-24.68 -97.711,1.07 -195.519,0.54 -293.235,0.26 -18.321,-0.05 -103.158,2.73 -114.597,-1.9 -6.662,-2.7 -12.006,-8.57 -14.498,-15.23 -3.871,-10.35 -1.731,-95.87 -1.729,-114.88 l 0.023,-239.334 -0.012,-149.442 c -0.009,-26.057 -0.095,-52.119 0.065,-78.174 0.099,-16.358 6.158,-23.934 21.332,-29.286 z"
         fill="#fefefe"
         fill-rule="nonzero"
         id="path6" />
      <path
         d="m 1459.91,994.771 c 1.81,7.039 0.4,48.129 0.4,58.199 l -0.23,168.69 c -25.71,-5.02 -44.35,-9.98 -71.55,-12.99 -106.01,-12.39 -213.11,11.26 -304.04,67.15 l -9.84,6.17 c 38.47,-105 99.94,-158.62 206.14,-190.82 73.94,-22.42 123.53,-40.93 179.12,-96.399 z"
         fill="#fefefe"
         fill-rule="nonzero"
         id="path7" />
    </g>
  </g>
</svg>
